<?xml version="1.0" encoding="UTF-8" standalone="no"?>
<svg
   xmlns:dc="http://purl.org/dc/elements/1.1/"
   xmlns:cc="http://creativecommons.org/ns#"
   xmlns:rdf="http://www.w3.org/1999/02/22-rdf-syntax-ns#"
   xmlns:svg="http://www.w3.org/2000/svg"
   xmlns="http://www.w3.org/2000/svg"
   xmlns:sodipodi="http://sodipodi.sourceforge.net/DTD/sodipodi-0.dtd"
   xmlns:inkscape="http://www.inkscape.org/namespaces/inkscape"
   width="92.868752mm"
   height="14.816666mm"
   viewBox="0 0 92.868752 14.816666"
   version="1.1"
   id="svg8"
   sodipodi:docname="logo.svg"
   inkscape:version="1.0.2 (e86c870879, 2021-01-15, custom)"
   inkscape:export-filename="C:\dev\NesEmu\resources\logo.png"
   inkscape:export-xdpi="192.00002"
   inkscape:export-ydpi="192.00002">
  <defs
     id="defs2" />
  <sodipodi:namedview
     id="base"
     pagecolor="#ffffff"
     bordercolor="#666666"
     borderopacity="1.0"
     inkscape:pageopacity="0.0"
     inkscape:pageshadow="2"
     inkscape:zoom="3.959798"
     inkscape:cx="-18.275006"
     inkscape:cy="28.936086"
     inkscape:document-units="px"
     inkscape:current-layer="layer1"
     inkscape:document-rotation="0"
     showgrid="true"
     inkscape:window-width="1920"
     inkscape:window-height="1018"
     inkscape:window-x="-6"
     inkscape:window-y="-6"
     inkscape:window-maximized="1">
    <inkscape:grid
       type="xygrid"
       id="grid10"
       originx="-1.3229167"
       originy="-1.3229167" />
  </sodipodi:namedview>
  <metadata
     id="metadata5">
    <rdf:RDF>
      <cc:Work
         rdf:about="">
        <dc:format>image/svg+xml</dc:format>
        <dc:type
           rdf:resource="http://purl.org/dc/dcmitype/StillImage" />
        <dc:title></dc:title>
      </cc:Work>
    </rdf:RDF>
  </metadata>
  <g
     inkscape:label="Layer 1"
     inkscape:groupmode="layer"
     id="layer1"
     transform="translate(-0.53007841,-0.5314275)">
    <path
       id="rect16-73-0-1"
       style="fill:#b3b3b3;fill-rule:evenodd;stroke-width:0.300009"
       d="M 3.8162757,0.79609403 C 2.1166667,0.79375 0.79375,1.8520833 0.79283822,4.267969 V 15.08125 H 4.4979164 V 9.7882813 H 12.699089 V 15.08125 h 3.705078 c -0.01777,-3.840706 0.03502,-7.68473 -0.02539,-11.523437 0.02539,-1.7057297 -1.56211,-2.764063 -3.45039,-2.76562497 -3.0373483,0.0027 -6.0748572,-0.0053 -9.1121103,0.0039 z M 16.667839,15.08125 h 3.705078 V 9.7882813 c 0.79375,0.0013 6.085416,0.0013 7.408333,0.0013 0.529167,0 0.79375,0.2645837 0.79375,0.7937497 l -9.11e-4,4.49792 h 3.705078 c -0.01479,-1.642305 0.01774,-3.297018 0.01172,-4.890625 -0.06827,-0.810647 -0.3659,-1.598021 -0.84375,-2.255859 1.455147,-1.889671 0.997633,-4.87625 -0.949219,-6.25 C 29.312579,0.72465803 28.310417,0.79375 27.78125,0.79375 L 16.66784,0.792191 c -2e-6,4.7145704 -1e-6,9.537354 -1e-6,14.289059 z M 35.566276,0.79609403 C 33.866667,0.79375 32.54375,2.1166667 32.54375,3.96875 c 0.02096,2.679365 -0.06755,5.2603653 0,7.9375 0,1.852083 1.322917,3.175 3.175,3.175 h 9.788929 V 11.376172 H 36.247914 V 4.497266 h 9.259765 V 0.79218803 c -3.493306,0.003794 -6.964719,-0.00585 -9.941403,0.003906 z M 48.947917,0.79375 c -1.852084,0 -3.175,1.3229167 -3.175,3.175 l 3.91e-4,11.1125 h 3.703124 V 9.7882813 h 8.203126 V 15.08125 h 3.703124 c 6.51e-4,-2.910417 6.51e-4,-8.4666667 6.51e-4,-11.1125 0,-1.8520833 -1.322916,-3.175 -3.175,-3.175 -3.237262,0.002483 -6.507811,-6.356e-5 -9.260416,0 z m 12.700391,14.2875 h 3.703124 V 4.497266 h 8.203126 V 15.08125 h 3.703124 c -0.01776,-3.838072 0.06105,-7.276561 6.51e-4,-11.1125 0,-1.8520833 -1.322916,-3.175 -3.175,-3.175 L 61.648308,0.792188 c 0,4.7630207 0,9.526041 0,14.289062 z M 80.544792,0.79609403 C 78.78573,0.83483403 77.340593,2.527719 77.523307,4.267969 l 10e-7,10.813281 h 15.609374 v -3.705078 h -11.90625 c 0.14711,-0.482187 6.51e-4,-1.057422 6.51e-4,-1.5865887 l 11.905599,-0.0013 V 6.085157 c -3.96875,-1e-6 -7.9375,-1e-6 -11.90625,0 6.51e-4,-0.528907 6.51e-4,-1.0580737 6.51e-4,-1.5872403 L 93.132682,4.497266 V 0.79218803 c -4.195942,0.0026 -8.392042,-0.0053 -12.58789,0.0039 z M 12.699089,4.497266 C 12.7,5.0270833 12.7,5.55625 12.7,6.0854167 l -8.2020836,-2.597e-4 3e-7,-1.5872403 z m 15.082031,0 c 1.058463,6.507e-4 1.058463,1.5881507 1.3e-4,1.5881507 -1.736068,-10e-7 -5.672265,-2.597e-4 -7.408333,-2.597e-4 V 4.4979167 Z m 29.898438,0 c -3.91e-4,0.5298173 -3.91e-4,1.058984 -3.91e-4,1.5881507 -2.634376,0 -5.568359,-2.607e-4 -8.202735,-2.597e-4 6.51e-4,-0.528907 6.51e-4,-1.0580737 6.51e-4,-1.5872403 z"
       sodipodi:nodetypes="cccccccccccccccccccccccccccccccccccccccccccccccccccccccccsccccccccccccssccccccccccccccc" />
    <path
       id="rect16-73-0"
       style="fill:#aa0000;fill-rule:evenodd;stroke-width:0.300009"
       d="M 80.697914,6.6145835 H 92.604171 V 9.2604172 H 80.697914 Z M 78.052083,3.9687497 h 2.645833 v -2.645833 c -1.461253,1e-7 -2.645833,1.1845798 -2.645833,2.645833 z m 2.645831,7.9375003 h 11.906257 v 2.645834 H 80.697914 Z M 78.052086,3.9687498 h 2.645833 V 14.552083 H 78.052086 Z M 80.697914,1.3229166 H 92.604171 V 3.9687499 H 80.697914 Z m -3.968748,2.6458331 h -2.645833 v -2.645833 c 1.461253,1e-7 2.645833,1.1845798 2.645833,2.645833 z m -2.64583,10e-8 h 2.645833 V 14.552083 H 74.083336 Z M 62.177082,1.3229166 h 2.645833 V 14.552083 h -2.645833 z m 2.645832,0 h 9.260417 V 3.9687499 H 64.822914 Z M 60.854166,3.96875 H 58.208333 V 1.322917 c 1.461253,1e-7 2.645833,1.1845798 2.645833,2.645833 z m -14.552083,0 h 2.645833 V 1.322917 c -1.461253,1e-7 -2.645833,1.1845798 -2.645833,2.645833 z m 11.906253,0 h 2.645833 v 10.583333 h -2.645833 z m -9.260418,2.6458321 h 9.260417 V 9.2604158 H 48.947918 Z M 46.302082,3.96875 h 2.645833 v 10.583333 h -2.645833 z m 2.645836,-2.645833 h 9.260417 V 3.9687502 H 48.947918 Z M 33.072917,11.90625 h 2.645833 v 2.645833 c -1.461253,0 -2.645833,-1.18458 -2.645833,-2.645833 z m 0,-7.937499 H 35.71875 V 1.322918 c -1.461253,1e-7 -2.645833,1.1845798 -2.645833,2.645833 z m 2.645833,7.937498 h 9.260416 v 2.645834 H 35.71875 Z M 33.072918,3.968751 h 2.645833 V 11.90625 H 33.072918 Z M 35.71875,1.322917 h 9.260417 V 3.9687502 H 35.71875 Z m -7.9375,-4e-7 V 3.96875 h 0.02997 c 0.730626,3e-7 1.322916,0.5922902 1.322916,1.3229166 0,0.7306264 -0.59229,1.3229163 -1.322916,1.3229166 -0.01,-3.77e-5 -0.01998,-3.77e-5 -0.02997,0 v 2.6458334 h 0.02997 c 0.730626,3e-7 1.292947,0.5922904 1.292947,1.3229164 H 31.75 c -4.8e-5,-0.9762454 -0.329943,-1.918225 -0.980821,-2.6458331 0.650878,-0.7276081 1.010744,-1.6695876 1.010791,-2.6458333 0,-2.1918801 -1.77687,-3.96875 -3.96875,-3.96875 -0.01,-3.77e-5 -0.01998,-3.77e-5 -0.02997,0 z M 15.875,3.96875 H 13.229167 V 1.322917 c 1.461253,1e-7 2.645833,1.1845798 2.645833,2.645833 z m 13.229167,6.614583 H 31.75 l -1e-6,3.96875 H 29.104166 Z M 19.84375,6.6145816 h 7.937499 V 9.2604153 H 19.84375 Z m -2.645834,-5.291665 h 2.645833 V 14.552083 h -2.645833 z m 2.645834,-9e-7 h 7.937499 V 3.9687489 H 19.84375 Z M 1.3229166,3.9687499 h 2.6458333 v -2.645833 c -1.4612533,-1e-7 -2.6458332,1.1845797 -2.6458333,2.645833 z m 11.9062504,3e-7 H 15.875 V 14.552083 H 13.229167 Z M 3.96875,6.614583 h 9.260417 V 9.2604167 H 3.96875 Z M 1.3229166,3.96875 H 3.9687499 V 14.552083 H 1.3229166 Z M 3.96875,1.3229166 h 9.260417 V 3.9687499 H 3.96875 Z"
       sodipodi:nodetypes="ccccccccccccccccccccccccccccccccccccccccccccccccccccccccccccccccccccccccccccccccccccccccccccccccsscccscccccccccccccccccccccccccccccccccccccccccccccccccccccc" />
  </g>
</svg>
